<?xml version="1.0" standalone="no"?><!DOCTYPE svg PUBLIC "-//W3C//DTD SVG 1.1//EN" "http://www.w3.org/Graphics/SVG/1.1/DTD/svg11.dtd"><svg t="1757688096813" class="icon" viewBox="0 0 1024 1024" version="1.1" xmlns="http://www.w3.org/2000/svg" p-id="115289" xmlns:xlink="http://www.w3.org/1999/xlink" width="200" height="200"><path d="M256 93.090909v837.818182h512V93.090909H256zM209.454545 46.545455h605.09091v930.90909H209.454545V46.545455z m302.545455 814.545454a46.545455 46.545455 0 1 1 0-93.090909 46.545455 46.545455 0 0 1 0 93.090909zM145.454545 325.818182l-69.818181 93.090909 69.818181 93.090909-69.818181 93.090909 69.818181 93.090909-80.290909 107.054546-37.236363-27.927273L87.272727 698.181818l-69.818182-93.090909 69.818182-93.090909-69.818182-93.090909 69.818182-93.090909-59.345454-79.127273 37.236363-27.927273L145.454545 325.818182z m850.618182-79.127273L936.727273 325.818182l69.818182 93.090909-69.818182 93.090909 69.818182 93.090909-69.818182 93.090909 59.345454 79.127273-37.236363 27.927273-80.290909-107.054546 69.818181-93.090909-69.818181-93.090909 69.818181-93.090909-69.818181-93.090909 80.290909-107.054546 37.236363 27.927273z" fill="#515151" p-id="115290"></path></svg>