<?xml version="1.0" standalone="no"?><!DOCTYPE svg PUBLIC "-//W3C//DTD SVG 1.1//EN" "http://www.w3.org/Graphics/SVG/1.1/DTD/svg11.dtd"><svg t="1757505857486" class="icon" viewBox="0 0 1024 1024" version="1.1" xmlns="http://www.w3.org/2000/svg" p-id="34893" xmlns:xlink="http://www.w3.org/1999/xlink" width="200" height="200"><path d="M112.28693333 656.12266667c-14.57066667 0-26.35413333 11.81866667-26.35413333 26.34986666v48.11733334c0 14.57173333 11.78346667 26.34986667 26.35413333 26.34986666 14.53013333 0 26.31253333-11.77813333 26.31253334-26.34986666v-48.11733334c0-14.53013333-11.7824-26.34986667-26.31253334-26.34986666z" p-id="34894" fill="#515151"></path><path d="M991.4432 337.2896L516.24853333 125.6288c-7.0592-3.17546667-15.136-3.02506667-22.12373333 0.2944L31.87733333 348.0672c-9.3952 4.50773333-15.22986667 14.03093333-14.9216 24.44693333 0.24746667 10.40853333 6.5664 19.60213333 16.15573334 23.62666667l52.92373333 22.06933333c-0.0096 0.3488-0.1024 0.68373333-0.1024 1.03893334v189.1232c0 14.5344 11.78346667 26.31786667 26.35413333 26.31786666 14.53013333 0 26.31253333-11.78346667 26.31253334-26.31786666V440.1216l50.29973333 20.97173333v272.1472c0 0.81813333 0.0416 1.63093333 0.12266667 2.4384-0.0416 0.736-0.07146667 1.55946667-0.08213334 2.464-0.07253333 26.8128 12.05013333 51.2576 30.27413334 70.88213334 55.0944 58.08 164.87466667 90.896 292.76373333 91.63733333 85.216-0.07253333 162.5184-15.63093333 220.78293333-42.26346667 29.13173333-13.41866667 53.68533333-29.616 71.9808-49.37386666 18.16426667-19.62453333 30.30613333-44.06826667 30.26453334-70.88106667 0-1.01333333-0.0288-1.92426667-0.08106667-2.73066667 0.06186667-0.72106667 0.08106667-1.44746667 0.08106667-2.1728V454.48746667L991.36 385.4336c9.52746667-4.208 15.6928-13.62453333 15.6928-24.03413333 0-10.41386667-6.12266667-19.90186667-15.6096-24.10986667zM765.9776 773.28533333c-34.98666667 39.68106667-136.10133333 75.41973333-253.99893333 74.67733334-78.61973333 0.07253333-149.68533333-14.816-198.80213334-37.46666667-24.5728-11.248-43.488-24.3776-55.2384-37.21066667-11.45386667-12.5952-16.032-23.69813333-16.32-34.1792 0.12266667-0.74666667 0.30826667-2.048 0.45226667-3.9104a26.37333333 26.37333333 0 0 0-0.4736-7.38346666V664.90666667c15.04426667 12.53333333 33.40266667 23.56586667 53.97333333 33.0528 56.43306667 25.83893333 132.48 41.30133333 216.40853334 41.3408 16.86613333 0 33.39306667-0.62613333 49.54986666-1.84213334 8.69546667-0.6624 15.2096-8.24746667 14.57173334-16.93333333-0.6592-8.72533333-8.2336-15.23946667-16.95893334-14.576a639.13813333 639.13813333 0 0 1-47.1616 1.72906667c-79.94666667 0.03626667-152.24746667-15.01866667-203.19573333-38.4288-32.4096-14.79786667-55.008-32.5696-67.18613333-50.50133334V483.0688l261.53173333 109.0432c0.8384 0.34986667 1.71733333 0.52053333 2.5824 0.77866667 0.81813333 0.24533333 1.6256 0.57386667 2.45973333 0.7392 0.71466667 0.13866667 1.44 0.1344 2.16533334 0.21013333 0.97813333 0.11413333 1.95093333 0.29546667 2.9376 0.29546667 0.0416 0 0.08213333-0.01706667 0.12266666-0.01706667 1.2704-0.00533333 2.5312-0.20053333 3.79306667-0.3904 0.50986667-0.0768 1.03466667-0.06186667 1.54346667-0.17493333a26.3616 26.3616 0 0 0 5.19146666-1.6608l258.3936-114.1184v140.94933333c-4.88213333 7.25333333-11.43786667 14.50986667-19.96266666 21.696-20.76586667 17.47946667-52.06933333 33.3728-90.41066667 45.0976-8.3776 2.54186667-13.0496 11.39306667-10.5088 19.7632 2.10133333 6.79786667 8.3872 11.1648 15.1392 11.1648a15.68 15.68 0 0 0 4.608-0.69546667c41.13813333-12.62613333 75.74826667-29.6768 101.13493333-50.82026666v63.056a25.744 25.744 0 0 0-0.44053333 7.50186666c0.17493333 1.792 0.37013333 2.9888 0.46293333 3.64266667-0.29866667 10.47786667-4.87786667 21.5712-16.36266666 34.15466667z m32.096-360.07253333l-0.05013333 0.01493333-285.04746667 125.89333334-287.56586667-119.91893334c-0.00533333 0-0.01493333-0.0064-0.02133333-0.0064L107.648 370.09493333l398.30186667-191.41226666 409.76746666 182.56746666-117.64266666 51.96266667z" p-id="34895" fill="#515151"></path></svg>